<svg xmlns="http://www.w3.org/2000/svg" width="860" height="420" viewBox="0 0 860 420">
  <rect width="100%" height="100%" fill="#ffffff"/>
  <text x="430" y="34" text-anchor="middle" font-family="Segoe UI, Arial" font-size="24" fill="#0f4c81">Cortante y Momento Flector</text>
  <line x1="120" y1="160" x2="740" y2="160" stroke="#374151" stroke-width="10"/>
  <polygon points="150,190 130,220 170,220" fill="#6b7280"/>
  <polygon points="710,190 690,220 730,220" fill="#6b7280"/>
  <line x1="430" y1="80" x2="430" y2="160" stroke="#dc2626" stroke-width="7"/>
  <polygon points="430,160 418,136 442,136" fill="#dc2626"/>
  <text x="445" y="100" font-family="Segoe UI, Arial" font-size="18" fill="#dc2626">Carga P</text>
  <line x1="300" y1="130" x2="300" y2="190" stroke="#16a34a" stroke-width="6"/>
  <line x1="320" y1="130" x2="320" y2="190" stroke="#16a34a" stroke-width="6"/>
  <polygon points="300,130 292,146 308,146" fill="#16a34a"/>
  <polygon points="320,190 312,174 328,174" fill="#16a34a"/>
  <text x="270" y="115" font-family="Segoe UI, Arial" font-size="18" fill="#16a34a">Cortante V</text>
  <path d="M510 150 Q560 80 610 150" fill="none" stroke="#2563eb" stroke-width="6"/>
  <polygon points="610,150 594,144 600,160" fill="#2563eb"/>
  <text x="520" y="105" font-family="Segoe UI, Arial" font-size="18" fill="#2563eb">Momento M</text>
  <text x="120" y="300" font-family="Segoe UI, Arial" font-size="17" fill="#374151">El cortante tiende a deslizar una parte de la viga respecto de otra.</text>
  <text x="120" y="328" font-family="Segoe UI, Arial" font-size="17" fill="#374151">El momento flector produce curvatura y suele ser mayor en la zona central.</text>
</svg>
